<?xml version="1.0" encoding="utf-8"?>
<!-- Generator: Adobe Illustrator 24.2.1, SVG Export Plug-In . SVG Version: 6.00 Build 0)  -->
<svg version="1.1" xmlns="http://www.w3.org/2000/svg" xmlns:xlink="http://www.w3.org/1999/xlink" x="0px" y="0px"
	 viewBox="0 0 489 162" style="enable-background:new 0 0 489 162;" xml:space="preserve">
<style type="text/css">
	.st0{fill:#002856;}
	.st1{fill:#FFFFFF;}
	.st2{fill:#CCCCCC;}
	.st3{fill:#D15E14;}
</style>
<g id="Layer_2">
</g>
<g id="Layer_1">
	<g>
		<g>
			<g>
				<path class="st0" d="M149.82,35.43c2.39,0,5.57,0.27,8.88,0.27c4.31-0.07,6.36-0.13,7.95-0.2c0.26,0.13,0.33,1.66,0,1.86
					c-1.52,0.33-2.45,0.53-3.31,0.8c-1.06,0.33-1.26,1.19-0.99,2.59c1.33,5.7,4.97,18.69,7.22,26.51c0,0,0.13,0,0.27-0.07
					c2.85-7.82,8.29-23.2,10.07-29.63c0.93,0.13,2.72,0.13,3.51,0c1.59,5.97,8.22,24.59,10.34,30.16c0.07,0.07,0.26,0,0.33-0.07
					c1.79-5.5,6.16-19.82,7.36-25.25c0.53-2.25,0.6-3.78-1.39-4.31c-1.06-0.27-2.05-0.46-3.91-0.73c-0.33-0.27-0.27-1.72,0-1.86
					c1.59,0,4.97,0.2,7.69,0.2c4.37,0,6.23-0.2,7.62-0.2c0.26,0.2,0.26,1.66,0,1.86c-1.33,0.27-2.19,0.46-2.92,0.73
					c-1.59,0.6-2.45,1.46-3.45,4.11c-2.85,7.75-8.75,26.58-11.14,34.67c-0.6,0-2.78,0-3.38,0.07c-1.52-5.5-7.95-23.99-10.41-30.49
					c-0.07,0-0.2,0.07-0.26,0.13c-2.98,8.29-8.42,23.53-10.54,30.29c-0.6-0.07-2.72-0.07-3.38,0.07
					c-1.99-8.15-7.36-28.04-9.48-34.53c-0.99-2.92-1.66-3.84-3.38-4.31c-1.13-0.33-1.86-0.46-3.51-0.73
					C149.42,37.08,149.48,35.63,149.82,35.43z"/>
				<path class="st0" d="M216.1,35.49c1.59,0,4.91,0.2,8.48,0.2c4.44,0,6.43-0.2,8.29-0.2c0.2,0.33,0.2,1.66-0.07,1.86
					c-1.19,0.2-2.45,0.4-3.18,0.6c-1.33,0.4-1.79,0.93-1.86,3.05c-0.13,2.45-0.07,5.83-0.07,12.33c0,0.27,0.13,0.6,0.33,0.66
					c0.46,0.07,1.66,0.13,11.27,0.13c7.29-0.07,9.81-0.07,10.41-0.13c0.2,0,0.4-0.27,0.4-0.4c0-3.45,0-10.94-0.13-13.32
					c-0.07-1.06-0.4-1.86-1.33-2.19c-0.99-0.33-2.19-0.53-3.91-0.73c-0.33-0.27-0.27-1.59,0.07-1.92c1.52,0,4.77,0.27,8.29,0.27
					c3.31,0,7.16-0.2,8.22-0.2c0.2,0.27,0.27,1.59,0,1.86c-1.46,0.2-2.58,0.4-3.45,0.66c-1.46,0.46-1.72,1.19-1.86,3.58
					c-0.13,2.32-0.13,6.23-0.13,14.12c0,5.77,0,13.06,0.13,15.31c0.2,1.86,0.6,2.59,1.86,2.98c0.93,0.33,2.19,0.53,4.24,0.73
					c0.2,0.27,0.13,1.72-0.27,1.92c-1.99,0-5.5-0.2-8.88-0.2c-3.38,0-6.69,0.13-8.42,0.2c-0.27-0.27-0.27-1.59,0-1.92
					c1.72-0.2,2.72-0.33,3.78-0.66c1.19-0.33,1.59-0.99,1.72-3.05c0.07-1.92,0.07-9.15,0.07-13.32c0-0.2-0.2-0.46-0.4-0.46
					c-1.26-0.07-6.89-0.07-10.54-0.07c-5.17,0-10.61,0-11.27,0.07c-0.13,0-0.2,0.33-0.2,0.4c0,3.65,0,11.27,0.07,12.66
					c0.13,2.25,0.4,3.18,2.05,3.65c0.99,0.27,1.99,0.53,3.98,0.8c0.27,0.33,0,1.79-0.26,1.92c-1.26,0-4.37-0.2-8.62-0.2
					c-3.91,0-7.49,0.2-8.82,0.2c-0.26-0.27-0.26-1.66-0.07-1.92c1.59-0.2,2.65-0.4,3.58-0.6c1.92-0.6,2.12-1.79,2.32-4.84
					c0-2.25,0.07-7.89,0.07-13.65c0-6.43-0.07-13.46-0.13-14.65c-0.13-1.86-0.53-2.59-1.86-2.92c-0.99-0.33-2.19-0.46-3.98-0.73
					C215.77,37.08,215.84,35.76,216.1,35.49z"/>
				<path class="st0" d="M270.21,35.43c1.66,0,5.1,0.27,8.82,0.27h13.06c2.52,0,5.97-0.07,7.36-0.27c0.07,0.07,0.27,0.27,0.27,0.33
					c-0.53,1.99-0.99,6.43-1.19,9.08c-0.27,0.33-1.86,0.33-2.06,0.13c-0.2-1.92-0.46-3.05-0.73-4.04c-0.53-1.59-1.13-2.32-3.31-2.52
					c-1.26-0.07-9.28-0.07-10.14,0c-0.46,0.13-0.8,0.93-0.8,1.26c-0.07,3.71-0.07,11.07-0.07,14.05c0,0.2,0.13,0.46,0.33,0.46
					c2.65,0.07,7.75,0.07,10.14-0.13c1.46-0.13,1.92-0.93,2.25-1.99c0.27-0.73,0.53-1.66,0.73-2.65c0.4-0.2,1.92-0.13,2.19,0.2
					c-0.2,1.33-0.46,3.91-0.46,6.23c0,2.45,0.07,4.38,0.13,6.03c-0.33,0.33-1.92,0.4-2.25,0.07c-0.2-1.39-0.27-1.92-0.53-2.72
					c-0.27-0.93-0.73-1.79-2.25-1.92c-1.99-0.2-7.49-0.2-9.94-0.13c-0.13,0-0.33,0.33-0.33,0.53c0,3.05,0,10.07,0.13,13.26
					c0,1.33,0.73,2.25,1.52,2.52c1.33,0.33,7.09,0.4,9.81,0.4c2.85-0.07,3.71-0.66,4.9-2.19c1.06-1.19,2.45-3.84,3.31-5.83
					c0.33-0.07,1.66,0.4,1.92,0.73c-0.33,2.05-1.79,7.09-2.78,9.08c-0.4,0.73-0.8,1.06-4.11,1.06c-5.57,0-10.34-0.27-17.23-0.27
					c-4.44,0-7.76,0.2-10.47,0.2c-0.27-0.2-0.33-1.59-0.07-1.92c2.06-0.2,3.84-0.33,5.04-0.66c1.59-0.4,2.05-1.26,2.25-3.58
					c0.07-1.26,0.07-8.55,0.07-16.04c0-6.03,0-11.93-0.07-13.12c-0.13-2.39-0.4-2.98-1.99-3.38c-0.86-0.27-1.99-0.46-3.51-0.66
					C269.81,37.02,269.95,35.76,270.21,35.43z"/>
				<path class="st0" d="M315.23,68.57c3.38-8.02,9.61-24.92,11.07-29.16c0.53-1.39,0.99-2.85,1.13-3.78c0.27,0,1.06,0.07,2.19,0.07
					c1.33,0,1.99-0.07,2.19-0.07c0.27,0.99,0.6,2.19,1.06,3.45c1.33,3.78,8.68,24.79,11,30.29c1.92,4.44,2.39,4.77,7.16,5.37
					c0.27,0.2,0.07,1.66-0.13,1.92c-1.72-0.07-5.1-0.2-8.09-0.2c-3.25,0-7.29,0.13-8.68,0.2c-0.2-0.27-0.33-1.66-0.07-1.92
					c1.46-0.2,2.65-0.4,3.65-0.73c0.86-0.4,0.93-1.06,0.73-1.66c-0.8-2.85-2.78-8.42-3.98-11.4c-0.07-0.2-0.46-0.46-0.6-0.46
					c-0.93-0.07-3.25,0-6.23,0c-4.24,0-4.71-0.07-5.5,0c-0.26,0-0.6,0.4-0.66,0.6c-1.33,3.58-3.45,9.15-3.58,10.74
					c-0.07,1.13,0.07,1.86,2.12,2.39c0.8,0.2,1.92,0.4,3.18,0.53c0.2,0.27,0.07,1.66-0.13,1.92c-1.39,0-4.77-0.2-8.48-0.2
					c-3.78,0-5.83,0.2-7.09,0.2c-0.27-0.27-0.27-1.66,0-1.92C312.25,74.14,313.05,73.67,315.23,68.57z M327.89,42.59
					c-1.13,3.31-3.84,10.8-4.97,14.32c0,0.27,0.07,0.4,0.27,0.46c0.66,0.07,2.78,0.07,5.3,0.07c1.59,0,3.78,0,4.44-0.07
					c0.13,0,0.33-0.27,0.2-0.53c-1.33-4.11-3.84-11.47-4.9-14.32C328.16,42.52,327.96,42.45,327.89,42.59z"/>
				<path class="st0" d="M379.2,76.65c-1.92,0-5.83-0.2-9.88-0.2c-4.9,0-8.28,0.2-10.01,0.2c-0.27-0.33-0.2-1.66,0-1.92
					c2.06-0.2,3.71-0.4,4.71-0.66c2.12-0.4,2.45-1.72,2.52-4.77c0.2-5.17,0.27-19.35,0.27-30.36c0-0.27-0.27-0.53-0.46-0.53
					c-1.13-0.07-6.03-0.07-8.55,0c-1.13,0.07-1.99,0.53-2.78,1.86c-0.8,1.26-1.66,3.65-2.58,6.16c-0.27,0.2-1.92-0.2-2.06-0.53
					c0.53-2.78,1.19-8.09,1.33-10.94c0-0.13,0.6-0.33,0.73-0.27c1.19,0.6,2.92,0.99,5.37,0.99h24.53c3.05,0,4.51-0.13,6.43-0.99
					c0.2,0,0.6,0.2,0.66,0.33c-0.66,2.32-1.19,7.62-1.52,11.2c-0.2,0.33-1.92,0.33-2.12,0.07c-0.2-2.32-0.53-4.64-1.06-5.9
					c-0.53-1.33-1.33-1.86-2.58-1.92c-3.12-0.07-7.76-0.07-9.28,0c-0.2,0.07-0.33,0.33-0.33,0.53c0,9.74,0,28.1,0.2,31.48
					c0.2,2.32,0.73,3.12,2.25,3.51c1.06,0.33,2.19,0.46,4.51,0.73C379.66,75.06,379.53,76.52,379.2,76.65z"/>
				<path class="st0" d="M400.68,71.62c-3.98-4.38-5.7-9.94-5.7-15.91c0-4.9,1.46-9.15,4.11-12.79c3.65-5.04,10.87-8.42,17.7-8.42
					c13.52,0,20.35,9.88,20.35,20.68c0,5.83-1.33,10.01-4.04,13.79c-4.11,5.7-10.8,8.68-17.43,8.68
					C409.3,77.65,404.13,75.33,400.68,71.62z M425.27,72.41c4.11-3.31,5.57-8.82,5.57-14.91c0-7.16-2.39-14.05-7.62-17.7
					c-2.39-1.66-5.24-2.65-8.68-2.65c-2.32,0-4.31,0.53-5.97,1.46c-4.84,2.85-7.09,8.82-7.09,15.58c0,6.96,2.59,14.52,8.42,18.29
					c2.32,1.46,4.91,2.25,8.29,2.25C420.96,74.73,423.55,73.87,425.27,72.41z"/>
				<path class="st0" d="M441.65,35.49c1.66,0,4.97,0.2,8.29,0.2c1.33,0,2.45,0,2.98-0.07c0.26,0.66,0.66,1.39,2.39,3.58
					c6.76,8.48,20.35,25.05,23.53,28.77c0.13,0.07,0.2,0,0.27-0.07c0-9.08,0.07-21.48-0.27-26.25c-0.13-1.92-0.53-2.98-2.52-3.51
					c-1.19-0.33-2.65-0.6-4.44-0.8c-0.27-0.27-0.2-1.66,0-1.86c1.72,0,4.77,0.2,8.82,0.2c2.25,0,6.16-0.2,7.03-0.2
					c0.27,0.2,0.27,1.59,0,1.86c-1.19,0.2-2.05,0.4-2.92,0.66c-1.72,0.6-2.12,1.79-2.25,3.58c-0.4,5.1-0.33,13.59-0.53,26.12
					c0,3.05,0.07,6.89,0.13,9.08c-0.73-0.07-3.78-0.07-4.57,0c-3.51-5.04-21.74-27.84-25.72-32.81c-0.07-0.07-0.27,0-0.27,0.07
					c-0.13,6.83-0.13,22.34,0.07,26.05c0.13,2.65,0.99,3.58,2.72,3.98c0.99,0.33,2.32,0.46,3.98,0.66c0.27,0.27,0.07,1.66-0.13,1.92
					c-1.59,0-4.57-0.2-8.29-0.2c-4.04,0-6.56,0.2-7.95,0.2c-0.2-0.2-0.2-1.72,0-1.92c1.46-0.13,2.52-0.33,3.51-0.6
					c1.52-0.46,2.39-1.33,2.52-3.91c0.27-3.45,0.46-14.25,0.6-28.17c0-0.99-0.33-2.45-1.79-3.25c-1.26-0.86-2.72-1.19-5.3-1.46
					C441.32,37.15,441.38,35.69,441.65,35.49z"/>
			</g>
			<g>
				<path class="st0" d="M181.17,95.43c-1.38-0.67-3.18-0.92-5.18-0.92c-6.06,0-9.52,4.47-9.52,11.53c0,6.68,3.72,12.32,11.15,12.32
					c1.8,0,3.55-0.46,4.6-1.42c1.04-0.84,2.05-2.26,3.13-4.09c0.21,0,0.92,0.38,1,0.67c-0.42,1.8-2.21,5.06-3.17,5.64
					c-1.21,0.42-3.84,1.04-6.39,1.04c-9.32,0-14.5-5.1-14.5-13.79c0-4.51,2.05-9.02,6.64-11.49c2.21-1.21,4.93-1.92,8.48-1.92
					c3.55,0,6.35,0.71,8.23,0.84c-0.25,1.46-0.63,4.55-0.67,6.43c-0.17,0.17-1.25,0.29-1.29,0.08
					C183.26,97.02,182.72,96.18,181.17,95.43z"/>
				<path class="st0" d="M197.21,116.4c-2.51-2.76-3.59-6.27-3.59-10.03c0-3.09,0.92-5.77,2.59-8.06c2.3-3.17,6.85-5.31,11.15-5.31
					c8.52,0,12.83,6.22,12.83,13.03c0,3.68-0.84,6.31-2.55,8.69c-2.59,3.59-6.81,5.47-10.99,5.47
					C202.64,120.2,199.38,118.74,197.21,116.4z M212.71,116.9c2.59-2.09,3.51-5.56,3.51-9.4c0-4.51-1.5-8.86-4.8-11.15
					c-1.5-1.04-3.3-1.67-5.47-1.67c-1.46,0-2.72,0.33-3.76,0.92c-3.05,1.8-4.47,5.56-4.47,9.82c0,4.39,1.63,9.15,5.31,11.53
					c1.46,0.92,3.09,1.42,5.22,1.42C209.99,118.36,211.62,117.82,212.71,116.9z"/>
				<path class="st0" d="M226.81,93.63c1.21,0,2.59,0.13,5.35,0.13c2.8,0,4.34-0.13,5.18-0.13c0.21,0.17,0.21,1,0,1.17
					c-1.04,0.13-1.59,0.25-2.13,0.38c-1,0.25-1.09,0.79-1.13,1.67c-0.08,1.5-0.08,5.1-0.13,9.02c0,5.18,0,8.65,0.13,10.44
					c0.04,0.67,0.54,1.09,0.79,1.17c1.09,0.38,5.14,0.38,6.98,0.33c0.88-0.04,1.63-0.33,2.47-1.55c0.75-1,1.75-2.84,2.46-4.6
					c0.33-0.08,1.09,0.21,1.25,0.46c-0.29,1.63-1.46,5.72-2.17,6.98c-0.17,0.33-0.58,0.54-1.71,0.54c-2.67,0-9.86-0.21-11.99-0.21
					c-1.96,0-5.14,0.13-5.97,0.13c-0.17-0.13-0.21-1.09,0-1.21c1.25-0.13,1.96-0.21,2.76-0.38c0.92-0.25,1.21-0.71,1.29-1.71
					c0.08-1.13,0.17-5.22,0.17-10.65c0-4.43,0-6.93-0.08-8.02c-0.04-1.71-0.21-2.17-1.34-2.42c-0.54-0.13-1.55-0.29-2.3-0.38
					C226.52,94.63,226.6,93.76,226.81,93.63z"/>
				<path class="st0" d="M255.09,93.63c1.21,0,2.59,0.13,5.35,0.13c2.8,0,4.34-0.13,5.18-0.13c0.21,0.17,0.21,1,0,1.17
					c-1.04,0.13-1.59,0.25-2.13,0.38c-1,0.25-1.09,0.79-1.13,1.67c-0.08,1.5-0.08,5.1-0.13,9.02c0,5.18,0,8.65,0.13,10.44
					c0.04,0.67,0.54,1.09,0.79,1.17c1.09,0.38,5.14,0.38,6.98,0.33c0.88-0.04,1.63-0.33,2.47-1.55c0.75-1,1.75-2.84,2.46-4.6
					c0.33-0.08,1.09,0.21,1.25,0.46c-0.29,1.63-1.46,5.72-2.17,6.98c-0.17,0.33-0.58,0.54-1.71,0.54c-2.67,0-9.86-0.21-11.99-0.21
					c-1.96,0-5.14,0.13-5.97,0.13c-0.17-0.13-0.21-1.09,0-1.21c1.25-0.13,1.96-0.21,2.76-0.38c0.92-0.25,1.21-0.71,1.29-1.71
					c0.08-1.13,0.17-5.22,0.17-10.65c0-4.43,0-6.93-0.08-8.02c-0.04-1.71-0.21-2.17-1.34-2.42c-0.54-0.13-1.55-0.29-2.3-0.38
					C254.79,94.63,254.88,93.76,255.09,93.63z"/>
				<path class="st0" d="M284.43,93.59c1.04,0,3.22,0.17,5.56,0.17h8.23c1.59,0,3.76-0.04,4.64-0.17c0.04,0.04,0.17,0.17,0.17,0.21
					c-0.33,1.25-0.63,4.05-0.75,5.72c-0.17,0.21-1.17,0.21-1.3,0.08c-0.13-1.21-0.29-1.92-0.46-2.55c-0.33-1-0.71-1.46-2.09-1.59
					c-0.79-0.04-5.85-0.04-6.39,0c-0.29,0.08-0.5,0.59-0.5,0.79c-0.04,2.34-0.04,6.98-0.04,8.86c0,0.13,0.08,0.29,0.21,0.29
					c1.67,0.04,4.89,0.04,6.39-0.08c0.92-0.08,1.21-0.59,1.42-1.25c0.17-0.46,0.33-1.04,0.46-1.67c0.25-0.13,1.21-0.08,1.38,0.13
					c-0.13,0.84-0.29,2.46-0.29,3.93c0,1.55,0.04,2.76,0.08,3.8c-0.21,0.21-1.21,0.25-1.42,0.04c-0.13-0.88-0.17-1.21-0.33-1.71
					c-0.17-0.58-0.46-1.13-1.42-1.21c-1.25-0.13-4.72-0.13-6.27-0.08c-0.08,0-0.21,0.21-0.21,0.33c0,1.92,0,6.35,0.08,8.36
					c0,0.84,0.46,1.42,0.96,1.59c0.84,0.21,4.47,0.25,6.18,0.25c1.8-0.04,2.34-0.42,3.09-1.38c0.67-0.75,1.55-2.42,2.09-3.68
					c0.21-0.04,1.04,0.25,1.21,0.46c-0.21,1.29-1.13,4.47-1.75,5.72c-0.25,0.46-0.5,0.67-2.59,0.67c-3.51,0-6.52-0.17-10.86-0.17
					c-2.8,0-4.89,0.13-6.6,0.13c-0.17-0.13-0.21-1-0.04-1.21c1.29-0.13,2.42-0.21,3.17-0.42c1-0.25,1.29-0.79,1.42-2.26
					c0.04-0.79,0.04-5.39,0.04-10.11c0-3.8,0-7.52-0.04-8.27c-0.08-1.5-0.25-1.88-1.25-2.13c-0.54-0.17-1.25-0.29-2.21-0.42
					C284.18,94.59,284.26,93.8,284.43,93.59z"/>
				<path class="st0" d="M336.82,118.61c-1.38,0.42-5.47,1.59-9.11,1.59c-9.78,0-14.91-4.93-14.91-13.74c0-5.51,2.8-9.82,7.35-11.86
					c2.34-1.09,4.89-1.59,8.15-1.59c3.38,0,5.77,0.67,8.27,0.92c-0.33,1.55-0.71,4.76-0.75,6.64c-0.13,0.21-1.17,0.29-1.38,0.13
					c-0.33-3.13-0.84-4.3-2.05-5.01c-1.29-0.75-2.97-1.17-5.68-1.17c-6.52,0-9.65,4.64-9.65,11.49c0,7.19,3.84,12.74,11.41,12.74
					c1.17,0,2.21-0.17,2.8-0.54c0.58-0.29,0.84-1.04,0.92-1.75c0.13-1.3,0.13-2.84,0.08-4.26c-0.08-1.38-0.33-1.88-1.55-2.21
					c-0.75-0.17-1.5-0.25-2.8-0.42c-0.21-0.13-0.13-1.09,0.04-1.21c1.3,0,3.3,0.13,5.85,0.13c2.46,0,3.72-0.08,4.55-0.13
					c0.13,0.13,0.13,1.13-0.04,1.25c-0.5,0.08-1,0.17-1.38,0.29c-0.79,0.25-1,0.79-1.04,2.01c-0.04,1.25-0.08,3.84,0,4.64
					c0.04,0.63,0.13,0.84,1.04,1.21C336.99,117.86,336.9,118.49,336.82,118.61z"/>
				<path class="st0" d="M346.46,93.59c1.04,0,3.22,0.17,5.56,0.17h8.23c1.59,0,3.76-0.04,4.64-0.17c0.04,0.04,0.17,0.17,0.17,0.21
					c-0.33,1.25-0.63,4.05-0.75,5.72c-0.17,0.21-1.17,0.21-1.3,0.08c-0.13-1.21-0.29-1.92-0.46-2.55c-0.33-1-0.71-1.46-2.09-1.59
					c-0.79-0.04-5.85-0.04-6.39,0c-0.29,0.08-0.5,0.59-0.5,0.79c-0.04,2.34-0.04,6.98-0.04,8.86c0,0.13,0.08,0.29,0.21,0.29
					c1.67,0.04,4.89,0.04,6.39-0.08c0.92-0.08,1.21-0.59,1.42-1.25c0.17-0.46,0.33-1.04,0.46-1.67c0.25-0.13,1.21-0.08,1.38,0.13
					c-0.13,0.84-0.29,2.46-0.29,3.93c0,1.55,0.04,2.76,0.08,3.8c-0.21,0.21-1.21,0.25-1.42,0.04c-0.13-0.88-0.17-1.21-0.33-1.71
					c-0.17-0.58-0.46-1.13-1.42-1.21c-1.25-0.13-4.72-0.13-6.27-0.08c-0.08,0-0.21,0.21-0.21,0.33c0,1.92,0,6.35,0.08,8.36
					c0,0.84,0.46,1.42,0.96,1.59c0.84,0.21,4.47,0.25,6.18,0.25c1.8-0.04,2.34-0.42,3.09-1.38c0.67-0.75,1.55-2.42,2.09-3.68
					c0.21-0.04,1.04,0.25,1.21,0.46c-0.21,1.29-1.13,4.47-1.75,5.72c-0.25,0.46-0.5,0.67-2.59,0.67c-3.51,0-6.52-0.17-10.86-0.17
					c-2.8,0-4.89,0.13-6.6,0.13c-0.17-0.13-0.21-1-0.04-1.21c1.29-0.13,2.42-0.21,3.17-0.42c1-0.25,1.29-0.79,1.42-2.26
					c0.04-0.79,0.04-5.39,0.04-10.11c0-3.8,0-7.52-0.04-8.27c-0.08-1.5-0.25-1.88-1.25-2.13c-0.54-0.17-1.25-0.29-2.21-0.42
					C346.21,94.59,346.29,93.8,346.46,93.59z"/>
			</g>
			<g>
				<path class="st0" d="M164,146.33c0.56-0.13,0.68-0.36,0.81-1c0.19-0.86,1.26-7.53,1.35-8.3c0.07-0.6,0-0.85-0.39-0.96
					c-0.24-0.09-0.68-0.13-1.11-0.19c-0.06-0.08,0.02-0.47,0.09-0.53c0.32,0,1.33,0.06,2.37,0.06h4.1c0.6,0,1.39-0.04,1.78-0.09
					c0.04,0,0.08,0.13,0.08,0.21c-0.23,0.56-0.49,1.62-0.68,2.61c-0.06,0.09-0.47,0.09-0.56,0.02c0-0.51-0.02-1.01-0.07-1.37
					c-0.06-0.43-0.32-0.62-0.71-0.64c-0.66-0.04-2.55-0.06-2.97-0.04c-0.13,0-0.28,0.21-0.3,0.34c-0.17,0.71-0.6,3.4-0.73,4.38
					c-0.02,0.06,0.04,0.11,0.09,0.11c0.51,0,2.35,0,2.93-0.04c0.53-0.04,0.71-0.23,0.86-0.58c0.09-0.21,0.19-0.43,0.3-0.77
					c0.09-0.08,0.53-0.02,0.6,0.06c-0.11,0.39-0.26,1.09-0.39,1.77c-0.09,0.56-0.19,1.28-0.24,1.84c-0.06,0.11-0.49,0.11-0.56,0.04
					c-0.02-0.39-0.04-0.64-0.06-0.86c-0.07-0.41-0.26-0.58-0.62-0.64c-0.62-0.06-2.39-0.06-2.95-0.06c-0.06,0-0.11,0.08-0.11,0.13
					c-0.19,1.11-0.45,2.72-0.53,3.49c-0.08,0.66-0.02,0.9,0.53,1.01c0.24,0.04,0.73,0.09,1.18,0.15c0.06,0.09,0,0.47-0.09,0.55
					c-0.55,0-1.69-0.06-2.67-0.06c-0.94,0-1.8,0.06-2.4,0.06c-0.06-0.09-0.02-0.47,0.08-0.55C163.4,146.42,163.78,146.38,164,146.33
					z"/>
				<path class="st0" d="M178.98,141.76c0,1.94-0.79,3.85-2.54,4.85c-0.75,0.45-1.6,0.66-2.05,0.66c-1.24,0-1.82-1.22-1.82-2.61
					c0-1.63,0.56-3.42,1.92-4.41c0.81-0.6,1.95-1,2.61-1C178.51,139.24,178.98,140.61,178.98,141.76z M175.35,146.36
					c1.2,0,2.16-2.01,2.16-4.1c0-1.11-0.26-2.18-1.35-2.2c-1.45,0-2.16,2.35-2.16,4C174,145.59,174.41,146.36,175.35,146.36z"/>
				<path class="st0" d="M183.88,140.31c0.55-0.68,1.07-1.07,1.48-1.07c0.3,0,0.64,0.11,0.81,0.43c0,0.04,0,0.21,0,0.26
					c-0.06,0.28-0.54,1.05-0.77,1.24c-0.08,0.07-0.17,0.07-0.23,0.04c-0.26-0.32-0.53-0.47-0.73-0.47c-0.3,0-0.88,0.66-1.67,2.31
					c-0.26,0.56-0.53,1.33-0.73,2.2c-0.11,0.51-0.22,1.03-0.21,1.41c-0.17,0.19-1.09,0.58-1.3,0.6c-0.08,0-0.13-0.11-0.13-0.17
					c0.09-0.45,0.94-4.13,1.09-5.64c0.06-0.45,0.02-0.64-0.11-0.64c-0.17,0-0.56,0.26-1.07,0.69c-0.02,0-0.07-0.02-0.07-0.06
					c-0.02-0.13,0.06-0.45,0.07-0.51c0.79-0.9,1.94-1.71,2.35-1.71c0.26,0,0.36,0.39,0.19,1.54c-0.08,0.49-0.17,0.9-0.24,1.33
					c0,0.02,0.06,0.04,0.07,0C183.05,141.48,183.39,140.95,183.88,140.31z"/>
				<path class="st0" d="M199.21,136.09c-0.45-0.24-1.22-0.36-1.94-0.36c-2.87,0-4.73,2.63-4.73,5.97c-0.02,3.01,1.56,4.7,4.19,4.7
					c0.47,0,1-0.08,1.41-0.28c0.64-0.26,1.33-0.83,2.05-1.77c0.11,0,0.38,0.28,0.34,0.41c-0.45,0.86-1.33,1.78-1.94,2.07
					c-0.64,0.32-1.62,0.47-2.63,0.47c-3.36,0-5.17-2.05-5.15-5.26c0-2.44,1.11-4.88,3.68-6.22c1-0.53,2.1-0.75,3.42-0.75
					c0.66,0,1.3,0.08,1.92,0.17c0.49,0.09,1,0.19,1.3,0.23c-0.17,0.58-0.47,1.95-0.54,2.74c-0.09,0.13-0.51,0.13-0.6,0.04
					C199.98,136.75,199.81,136.39,199.21,136.09z"/>
				<path class="st0" d="M204.19,143.04c-0.45,0.71-0.71,1.32-0.92,2.24c-0.11,0.49-0.21,1.01-0.09,1.32
					c-0.23,0.21-1.13,0.71-1.33,0.71c-0.04,0-0.15-0.13-0.15-0.23c0-0.28,0.08-0.64,0.15-1.07c0.53-2.99,1.73-9,1.88-10.15
					c0.02-0.28-0.07-0.41-0.21-0.41c-0.24,0-0.49,0.08-1.11,0.36c-0.02-0.07,0.04-0.49,0.09-0.54c0.71-0.51,2.09-1.15,2.57-1.15
					c0.17,0,0.26,0.24,0.13,1c-0.38,1.97-1.18,5.97-1.45,7.42c0,0.02,0.06,0.04,0.07,0c1.39-1.9,3.18-3.29,4.25-3.29
					c0.66,0,0.66,0.83,0.38,2.25c-0.26,1.37-0.58,2.8-0.73,3.78c-0.02,0.34,0.02,0.49,0.19,0.49c0.21,0,0.66-0.28,1.15-0.81
					c0.02,0.02,0.06,0.06,0.06,0.11c0.02,0.15-0.06,0.49-0.07,0.55c-0.85,1.09-1.95,1.65-2.37,1.65c-0.34,0-0.49-0.53-0.36-1.3
					c0.21-1.32,0.56-2.87,0.88-4.4c0.15-0.79,0.09-1.09-0.24-1.09C206.37,140.48,205.17,141.48,204.19,143.04z"/>
				<path class="st0" d="M213.94,140.31c0.55-0.68,1.07-1.07,1.48-1.07c0.3,0,0.64,0.11,0.81,0.43c0,0.04,0,0.21,0,0.26
					c-0.06,0.28-0.54,1.05-0.77,1.24c-0.08,0.07-0.17,0.07-0.23,0.04c-0.26-0.32-0.53-0.47-0.73-0.47c-0.3,0-0.88,0.66-1.67,2.31
					c-0.26,0.56-0.53,1.33-0.73,2.2c-0.11,0.51-0.22,1.03-0.21,1.41c-0.17,0.19-1.09,0.58-1.3,0.6c-0.08,0-0.13-0.11-0.13-0.17
					c0.09-0.45,0.94-4.13,1.09-5.64c0.06-0.45,0.02-0.64-0.11-0.64c-0.17,0-0.56,0.26-1.07,0.69c-0.02,0-0.07-0.02-0.07-0.06
					c-0.02-0.13,0.06-0.45,0.07-0.51c0.79-0.9,1.94-1.71,2.35-1.71c0.26,0,0.36,0.39,0.19,1.54c-0.08,0.49-0.17,0.9-0.24,1.33
					c0,0.02,0.06,0.04,0.08,0C213.12,141.48,213.45,140.95,213.94,140.31z"/>
				<path class="st0" d="M219.77,145.01c0.02,0.09-0.02,0.45-0.06,0.55c-0.88,1.18-1.97,1.71-2.37,1.71c-0.39,0-0.56-0.51-0.3-1.77
					c0.28-1.45,0.66-3.19,0.88-4.32c0.06-0.26,0.02-0.41-0.08-0.41c-0.21,0-0.56,0.21-1.01,0.56c0,0-0.06-0.02-0.06-0.06
					c-0.04-0.11,0.04-0.43,0.07-0.49c0.75-0.77,1.9-1.54,2.37-1.54c0.24,0,0.3,0.45,0.11,1.32c-0.19,1.01-0.85,3.85-0.96,4.73
					c-0.04,0.34,0.02,0.49,0.19,0.49c0.24,0,0.6-0.24,1.15-0.83C219.71,144.95,219.77,144.97,219.77,145.01z M219.99,136.14
					c0.08,0.11,0.11,0.34,0.09,0.51c-0.04,0.36-0.24,0.66-0.47,0.81c-0.13,0.07-0.75,0.13-0.85,0.06c-0.19-0.11-0.28-0.3-0.3-0.64
					c0.02-0.15,0.09-0.43,0.17-0.53c0.19-0.19,0.58-0.34,0.9-0.34C219.8,136.01,219.95,136.09,219.99,136.14z"/>
				<path class="st0" d="M225.67,139.66c0.02,0.04,0.04,0.19,0.02,0.28c-0.08,0.24-0.39,0.75-0.6,0.94c-0.06,0.04-0.17,0.02-0.21,0
					c-0.26-0.47-0.73-0.75-1.26-0.75c-0.53,0-0.98,0.41-0.98,1.01c0,0.49,0.21,0.79,1.33,1.63c1,0.77,1.35,1.2,1.35,1.82
					c0,0.47-0.19,1.15-1.05,1.86c-0.81,0.64-1.58,0.81-2.16,0.81c-0.6,0-1.11-0.21-1.37-0.47c-0.15-0.15-0.24-0.38-0.24-0.54
					c0-0.23,0.24-0.96,0.41-1.22c0.04-0.06,0.28-0.08,0.28-0.04c0.21,0.92,0.96,1.45,1.75,1.45c0.7,0,1.16-0.47,1.16-1.01
					c0-0.47-0.15-0.81-1.28-1.67c-1.01-0.79-1.26-1.26-1.26-1.86c0-0.49,0.21-1.16,0.86-1.75c0.75-0.68,1.6-0.9,2.09-0.9
					C225.12,139.24,225.55,139.45,225.67,139.66z"/>
				<path class="st0" d="M228.48,144.9c-0.09,0.75,0.08,0.96,0.34,0.96c0.53,0,1.37-0.83,1.69-1.26c0.04-0.02,0.11,0.04,0.09,0.08
					c0.02,0.17-0.04,0.51-0.09,0.58c-0.58,0.92-2.03,2.01-2.91,2.01c-0.34,0-0.64-0.39-0.6-1.26c0.02-0.75,0.64-3.89,0.96-5.56
					c0-0.04-0.02-0.09-0.06-0.09c-0.55,0-1.05-0.02-1.33-0.06c-0.02-0.04-0.02-0.09-0.02-0.13c0.11-0.19,0.64-0.62,0.73-0.66
					c0.08-0.02,0.3,0.02,0.75,0c0.08,0,0.13-0.06,0.13-0.09c0.26-1.09,0.39-1.73,0.53-2.01c0.11-0.23,1.11-1,1.43-1.11
					c0.06-0.02,0.19,0.17,0.15,0.23c-0.17,0.23-0.32,0.64-0.41,1.07c-0.13,0.51-0.28,1.18-0.39,1.78c-0.02,0.04,0,0.13,0.06,0.13
					c0.96,0.02,2.05-0.08,2.22-0.15c0.02,0.09-0.06,0.34-0.11,0.41c-0.13,0.15-0.56,0.36-1,0.43c-0.38,0.08-0.71,0.11-1.26,0.13
					c-0.06,0-0.09,0.06-0.13,0.13C228.97,141.7,228.58,144.05,228.48,144.9z"/>
				<path class="st0" d="M246.05,141.25c0.55,0,0.83-0.15,0.83-0.62c0-0.36-0.21-0.83-0.51-1.18c0.07-0.21,0.98-0.83,1.2-0.86
					c0.23,0.17,0.38,0.66,0.38,1.15c0,1-1,2.46-2.61,2.59c-0.71,2.78-2.74,5.2-5.58,5.2c-2.67,0-3.85-2.18-3.85-4.43
					c0-1.26,0.41-2.57,1.52-3.59c0.51-0.49,1.33-1,1.8-1c0.96,0,1.33,0.98,1.32,1.6c0,0.04,0.06,0.04,0.08,0.02
					c0.86-1.11,1.28-1.92,1.32-3.1c0.02-0.21-0.04-0.64-0.09-0.9c0.11-0.15,1.13-0.94,1.37-0.94c0.13,0.02,0.21,0.55,0.17,0.88
					c-0.08,1.71-1.48,3.66-3.83,6.27c-0.6,0.68-1.35,1.43-1.82,1.92c-0.07,0.06-0.07,0.15-0.06,0.19c0.43,1.03,1.54,1.84,3.06,1.84
					c1.9,0,3.27-1.33,3.38-3.68c0-0.11-0.02-0.22-0.08-0.3c-0.19-0.13-0.41-0.19-0.83-0.19c-0.85,0-1.48,0.66-1.97,1.8
					c-0.04,0.02-0.13,0.02-0.15,0c-0.13-0.07-0.24-0.32-0.26-0.43c0.41-1.15,1.47-2.46,2.87-2.46
					C244.62,141.03,245.45,141.25,246.05,141.25z M237.2,142.23c0,0.49,0.08,0.98,0.15,1.24c0.04,0.07,0.09,0.09,0.13,0.06
					c0.43-0.38,1.11-1.03,1.63-1.67c0.28-0.34,0.32-0.68,0.32-1.07c0-0.56-0.28-1.3-0.9-1.3
					C237.92,139.49,237.2,140.35,237.2,142.23z"/>
				<path class="st0" d="M253.72,135.35c0.45,0,1.28,0.06,2.25,0.06c1.09,0,1.97-0.06,2.31-0.06c0.06,0.06,0.02,0.47-0.06,0.55
					c-0.36,0.04-0.68,0.07-0.92,0.15c-0.39,0.11-0.56,0.28-0.68,0.86c-0.13,0.62-0.32,1.71-0.6,3.55c0,0.08,0.02,0.13,0.07,0.15
					c0.09,0.02,0.41,0.04,3.12,0.04c1.88,0,2.61,0,2.8-0.02c0.04-0.02,0.11-0.07,0.11-0.15c0.23-1.26,0.49-3.04,0.56-3.72
					c0.04-0.41-0.08-0.62-0.36-0.7c-0.26-0.09-0.51-0.11-0.98-0.19c-0.06-0.08,0-0.47,0.08-0.53c0.38,0,1.18,0.06,2.2,0.06
					c1.2,0,1.9-0.06,2.25-0.06c0.06,0.08,0.02,0.47-0.06,0.53c-0.39,0.06-0.73,0.11-0.96,0.19c-0.45,0.15-0.54,0.43-0.68,1.07
					c-0.19,1.01-1.16,7.08-1.28,8.27c-0.06,0.53,0.06,0.79,0.41,0.9c0.28,0.07,0.56,0.11,1.07,0.17c0.04,0.09,0,0.47-0.09,0.55
					c-0.36,0-1.41-0.06-2.39-0.06c-1.07,0-1.84,0.04-2.33,0.06c-0.07-0.08-0.04-0.49,0.06-0.55c0.39-0.06,0.81-0.11,1.05-0.19
					c0.36-0.11,0.51-0.38,0.62-0.86c0.15-0.71,0.45-2.57,0.64-3.81c0-0.06-0.02-0.13-0.08-0.13c-0.39-0.04-1.8-0.04-2.82-0.04
					c-1.94,0-2.97,0-3.14,0.02c-0.02,0-0.09,0.09-0.09,0.11c-0.15,0.98-0.47,3.01-0.54,3.64c-0.09,0.73-0.02,0.98,0.47,1.09
					c0.24,0.07,0.51,0.09,1.03,0.17c0.04,0.08-0.02,0.51-0.11,0.55c-0.39,0-1.32-0.06-2.39-0.06c-1.18,0-2.05,0.06-2.48,0.06
					c-0.04-0.09,0-0.47,0.06-0.55c0.32-0.04,0.71-0.07,1.03-0.15c0.58-0.11,0.7-0.39,0.88-1.37c0.21-1.2,1.16-7.06,1.26-8
					c0.06-0.51,0-0.79-0.36-0.88c-0.3-0.09-0.56-0.11-1.05-0.17C253.6,135.79,253.64,135.41,253.72,135.35z"/>
				<path class="st0" d="M268.8,145.01c0.02,0.09-0.02,0.45-0.06,0.55c-0.88,1.18-1.97,1.71-2.37,1.71c-0.39,0-0.56-0.51-0.3-1.77
					c0.28-1.45,0.66-3.19,0.88-4.32c0.06-0.26,0.02-0.41-0.08-0.41c-0.21,0-0.56,0.21-1.01,0.56c0,0-0.06-0.02-0.06-0.06
					c-0.04-0.11,0.04-0.43,0.07-0.49c0.75-0.77,1.9-1.54,2.37-1.54c0.24,0,0.3,0.45,0.11,1.32c-0.19,1.01-0.85,3.85-0.96,4.73
					c-0.04,0.34,0.02,0.49,0.19,0.49c0.24,0,0.6-0.24,1.15-0.83C268.75,144.95,268.8,144.97,268.8,145.01z M269.03,136.14
					c0.08,0.11,0.11,0.34,0.09,0.51c-0.04,0.36-0.24,0.66-0.47,0.81c-0.13,0.07-0.75,0.13-0.85,0.06c-0.19-0.11-0.28-0.3-0.3-0.64
					c0.02-0.15,0.09-0.43,0.17-0.53c0.19-0.19,0.58-0.34,0.9-0.34C268.84,136.01,268.99,136.09,269.03,136.14z"/>
				<path class="st0" d="M274.7,139.66c0.02,0.04,0.04,0.19,0.02,0.28c-0.08,0.24-0.39,0.75-0.6,0.94c-0.06,0.04-0.17,0.02-0.21,0
					c-0.26-0.47-0.73-0.75-1.26-0.75c-0.53,0-0.98,0.41-0.98,1.01c0,0.49,0.21,0.79,1.33,1.63c1,0.77,1.35,1.2,1.35,1.82
					c0,0.47-0.19,1.15-1.05,1.86c-0.81,0.64-1.58,0.81-2.16,0.81c-0.6,0-1.11-0.21-1.37-0.47c-0.15-0.15-0.24-0.38-0.24-0.54
					c0-0.23,0.24-0.96,0.41-1.22c0.04-0.06,0.28-0.08,0.28-0.04c0.21,0.92,0.96,1.45,1.75,1.45c0.7,0,1.17-0.47,1.17-1.01
					c0-0.47-0.15-0.81-1.28-1.67c-1.01-0.79-1.26-1.26-1.26-1.86c0-0.49,0.21-1.16,0.86-1.75c0.75-0.68,1.6-0.9,2.09-0.9
					C274.16,139.24,274.59,139.45,274.7,139.66z"/>
				<path class="st0" d="M280.51,135.35c0.43,0,1.37,0.06,2.37,0.06c0.98,0,1.82-0.06,2.29-0.06c0.06,0.08,0.06,0.43-0.04,0.53
					c-0.38,0.06-0.73,0.09-1,0.17c-0.43,0.11-0.56,0.36-0.69,1.01c-0.32,1.71-0.98,5.84-1.3,8.08c-0.08,0.9,0.11,1.07,0.58,1.2
					c0.26,0.06,0.58,0.07,0.98,0.15c0.04,0.08,0,0.45-0.08,0.53c-0.64,0-1.41-0.06-2.61-0.06c-1.3,0-2.1,0.06-2.39,0.06
					c-0.04-0.09-0.04-0.45,0.06-0.53c0.43-0.08,0.83-0.11,1.07-0.17c0.49-0.13,0.71-0.43,0.85-1.13c0.39-2.24,1-5.99,1.3-8.29
					c0.08-0.56,0-0.75-0.45-0.86c-0.24-0.06-0.66-0.11-1.01-0.17C280.38,135.81,280.43,135.43,280.51,135.35z M286.93,135.35
					c0.39,0,1.15,0.06,2.14,0.06c1.16,0,1.73-0.04,2.22-0.06c0.07,0.06,0.06,0.45-0.06,0.53c-1.11,0.19-1.63,0.39-2.48,1.2
					c-1.16,1.13-2.99,2.84-4.1,3.76c-0.02,0.02-0.04,0.09-0.02,0.09c0.83,1.37,2.61,3.91,3.74,4.96c0.21,0.17,0.49,0.34,0.71,0.39
					c0.32,0.11,0.69,0.17,1.26,0.19c0.08,0.08,0.02,0.49-0.09,0.55c-0.98,0.11-2.59,0.02-2.97-0.17c-0.28-0.11-0.53-0.34-0.83-0.66
					c-0.71-0.79-2.4-3.29-3.19-4.53c-0.11-0.19-0.21-0.26-0.28-0.34c-0.02-0.06,0.04-0.23,0.11-0.28c0.9-0.3,3.46-2.65,4.4-3.7
					c0.53-0.58,0.6-0.77,0.6-0.92c0.02-0.13-0.04-0.26-0.24-0.34c-0.23-0.07-0.6-0.15-1-0.21
					C286.78,135.79,286.82,135.43,286.93,135.35z"/>
				<path class="st0" d="M294.35,145.01c0.02,0.09-0.02,0.45-0.06,0.55c-0.88,1.18-1.97,1.71-2.37,1.71c-0.39,0-0.56-0.51-0.3-1.77
					c0.28-1.45,0.66-3.19,0.88-4.32c0.06-0.26,0.02-0.41-0.08-0.41c-0.21,0-0.56,0.21-1.01,0.56c0,0-0.06-0.02-0.06-0.06
					c-0.04-0.11,0.04-0.43,0.07-0.49c0.75-0.77,1.9-1.54,2.37-1.54c0.24,0,0.3,0.45,0.11,1.32c-0.19,1.01-0.85,3.85-0.96,4.73
					c-0.04,0.34,0.02,0.49,0.19,0.49c0.24,0,0.6-0.24,1.15-0.83C294.3,144.95,294.35,144.97,294.35,145.01z M294.58,136.14
					c0.08,0.11,0.11,0.34,0.09,0.51c-0.04,0.36-0.24,0.66-0.47,0.81c-0.13,0.07-0.75,0.13-0.85,0.06c-0.19-0.11-0.28-0.3-0.3-0.64
					c0.02-0.15,0.09-0.43,0.17-0.53c0.19-0.19,0.58-0.34,0.9-0.34C294.39,136.01,294.54,136.09,294.58,136.14z"/>
				<path class="st0" d="M295.59,141.46c-0.04-0.11,0.04-0.49,0.06-0.54c0.83-0.96,1.9-1.67,2.31-1.67c0.34,0,0.38,0.6,0.17,1.75
					c-0.11,0.64-0.21,1.11-0.28,1.48c0,0.02,0.04,0.04,0.06,0c0.96-1.35,2.07-2.39,3.04-2.91c0.38-0.21,0.68-0.32,1.01-0.32
					c0.64,0,0.68,0.88,0.34,2.54c-0.3,1.41-0.55,2.65-0.68,3.46c-0.02,0.28-0.02,0.51,0.15,0.51c0.19,0,0.54-0.17,1.13-0.83
					c0.02,0,0.06,0.02,0.08,0.09c0.02,0.08-0.04,0.51-0.09,0.58c-0.73,1.01-1.86,1.67-2.37,1.67c-0.39,0-0.47-0.66-0.23-1.9
					c0.26-1.35,0.58-2.76,0.79-3.78c0.13-0.71,0.09-1.05-0.24-1.05c-0.56,0-1.69,0.96-2.8,2.74c-0.26,0.41-0.54,1.15-0.68,1.75
					c-0.17,0.68-0.3,1.35-0.24,1.62c-0.21,0.23-1.07,0.6-1.26,0.62c-0.09,0.02-0.19-0.11-0.17-0.21c0.08-0.75,0.92-4.26,1.13-5.84
					c0.04-0.26,0.02-0.43-0.11-0.43c-0.19,0-0.62,0.34-1.03,0.73C295.65,141.52,295.59,141.48,295.59,141.46z"/>
				<path class="st0" d="M311.43,139.66c-0.13,0.41-0.6,0.88-1,1.01c-0.17,0.09-0.41,0.17-0.62,0.21c0.02,0.11,0.02,0.39,0.02,0.51
					c0,1.39-0.66,2.57-1.6,3.21c-0.47,0.34-1.11,0.55-1.52,0.64c-0.11,0.04-0.26,0.08-0.41,0.15c-0.15,0.09-0.32,0.23-0.32,0.36
					c0,0.19,0.17,0.36,0.55,0.55c0.77,0.36,1.86,0.9,2.44,1.3c0.62,0.41,1,0.86,1,1.48c0,0.71-0.56,1.62-1.67,2.27
					c-0.85,0.49-1.78,0.66-2.39,0.66c-1.94,0-3.29-1.05-3.29-2.33c0-0.66,1.18-1.48,2.55-2.31c0.04-0.02,0.02-0.06,0-0.07
					c-0.43-0.3-0.64-0.62-0.64-0.9c0-0.07,0.06-0.23,0.11-0.28c0.21-0.23,0.83-0.62,1.05-0.75c0-0.02,0.02-0.06-0.02-0.08
					c-1.01-0.23-1.41-1.07-1.41-2.05c0.02-1.2,0.58-2.56,1.69-3.31c0.54-0.36,1.48-0.68,1.99-0.68c0.32,0,0.75,0.15,1.24,0.39
					c0.21,0.09,0.6,0.26,0.92,0.24c0.53,0,0.88-0.09,1.28-0.45C311.43,139.45,311.43,139.6,311.43,139.66z M308.71,149.82
					c0-0.47-0.28-0.81-0.75-1.15c-0.64-0.47-1.71-1.03-2.09-1.03c-0.26,0-1.97,1.03-1.97,1.67c0,0.92,1.22,1.82,2.74,1.82
					C307.98,151.12,308.71,150.52,308.71,149.82z M308.54,141.7c0-1-0.39-1.73-1.22-1.73c-1.09,0-1.67,1.62-1.67,2.86
					c0,1,0.41,1.73,1.24,1.73C307.86,144.56,308.54,143.09,308.54,141.7z"/>
				<path class="st0" d="M312.95,140.65c0.83-0.79,2.31-1.41,3.04-1.41c0.47,0,0.81,0.06,1.01,0.13c0.04,0.02,0.09-0.02,0.09-0.06
					c0.26-1.22,0.54-2.8,0.62-3.4c0.04-0.39,0-0.56-0.19-0.56c-0.21,0-0.66,0.08-1.22,0.32c-0.04-0.08,0.02-0.47,0.08-0.53
					c0.84-0.51,2.24-1.05,2.71-1.05c0.22,0.02,0.21,0.41,0.11,0.96c-0.56,2.99-1.88,9.24-1.9,10.46c0,0.17,0.07,0.32,0.17,0.32
					c0.28,0,0.69-0.32,1.22-0.85c0.02,0.02,0.06,0.04,0.06,0.07c0.02,0.15-0.06,0.49-0.09,0.58c-0.7,0.92-2.09,1.8-2.54,1.8
					c-0.23,0-0.34-0.38-0.28-0.79c0.02-0.51,0.15-1.2,0.34-2.25c-0.02-0.02-0.07-0.02-0.09,0c-1.24,1.67-2.82,2.84-3.68,2.84
					c-0.9,0-1.15-1.22-1.15-2.14C311.26,143.45,311.9,141.67,312.95,140.65z M316,143.62c0.19-0.3,0.38-0.66,0.47-1.07
					c0.13-0.49,0.3-1.47,0.34-1.69c0-0.17-0.02-0.3-0.11-0.38c-0.32-0.28-0.85-0.43-1.41-0.43c-1.73,0-2.57,2.57-2.57,4.45
					c0,0.92,0.24,1.39,0.71,1.39C313.95,145.89,314.96,145.2,316,143.62z"/>
				<path class="st0" d="M326.48,141.76c0,1.94-0.79,3.85-2.54,4.85c-0.75,0.45-1.6,0.66-2.05,0.66c-1.24,0-1.82-1.22-1.82-2.61
					c0-1.63,0.56-3.42,1.92-4.41c0.81-0.6,1.95-1,2.61-1C326.01,139.24,326.48,140.61,326.48,141.76z M322.86,146.36
					c1.2,0,2.16-2.01,2.16-4.1c0-1.11-0.26-2.18-1.35-2.2c-1.45,0-2.16,2.35-2.16,4C321.5,145.59,321.92,146.36,322.86,146.36z"/>
				<path class="st0" d="M327.82,141.42c-0.04-0.15,0.02-0.43,0.08-0.55c0.83-0.92,1.9-1.63,2.35-1.63c0.3,0,0.32,0.58,0.19,1.41
					c-0.11,0.64-0.23,1.18-0.36,1.86c0.02,0.02,0.06,0,0.08,0c1.39-1.94,3.12-3.27,3.96-3.27c0.56,0,0.75,0.6,0.58,1.84
					c-0.06,0.53-0.17,1.07-0.24,1.48c0.02,0.02,0.06,0.04,0.08,0c1.35-1.9,3.16-3.33,4.06-3.33c0.68,0,0.73,0.81,0.38,2.59
					c-0.26,1.33-0.53,2.37-0.66,3.34c-0.04,0.26-0.02,0.55,0.17,0.55c0.19,0,0.49-0.13,1.15-0.81c0.02,0,0.06,0.04,0.06,0.11
					c0,0.09-0.06,0.45-0.09,0.55c-0.88,1.13-1.95,1.69-2.39,1.69c-0.41,0-0.47-0.71-0.26-1.84c0.3-1.52,0.55-2.55,0.79-3.76
					c0.15-0.71,0.17-1.13-0.19-1.13c-0.6,0-1.92,1.2-2.86,2.8c-0.21,0.34-0.49,0.96-0.68,1.69c-0.13,0.55-0.3,1.22-0.28,1.69
					c-0.17,0.17-1.03,0.56-1.26,0.56c-0.08,0-0.17-0.09-0.13-0.32c0.09-0.66,0.75-3.4,1.01-5.19c0.15-0.86,0.06-1.22-0.26-1.22
					c-0.55,0-1.63,0.9-2.78,2.72c-0.17,0.26-0.38,0.68-0.58,1.32c-0.24,0.71-0.45,1.69-0.38,2.07c-0.28,0.26-1.13,0.58-1.28,0.6
					c-0.09,0-0.15-0.17-0.13-0.3c0.02-0.19,0.08-0.51,0.19-1.05c0.34-1.41,0.77-3.51,0.94-4.6c0.06-0.36,0.02-0.53-0.09-0.53
					c-0.23,0-0.6,0.3-1.07,0.71C327.85,141.5,327.82,141.46,327.82,141.42z"/>
			</g>
		</g>
		<g>
			<g>
				<g>
					<g>
						<polygon class="st1" points="74.1,29.82 74.1,29.82 74.1,29.82 						"/>
						<polygon class="st1" points="66.22,29.82 66.22,19.44 64.65,19.44 64.65,29.82 56.77,29.82 45.92,35.47 45.92,38.54 
							56.77,32.89 74.1,32.89 74.1,29.82 						"/>
					</g>
					<polygon class="st2" points="97.37,91.75 82.9,75.34 72.95,70.15 79.8,82.44 					"/>
					<path class="st2" d="M72.95,38.8h-8.71l2.27,1.39c-0.15,0.16-0.25,0.37-0.25,0.61v0.89h-1.64v-0.89c0-0.48-0.39-0.86-0.86-0.86
						c-0.48,0-0.86,0.39-0.86,0.86v0.89h-1.64v-0.89c0-0.48-0.39-0.86-0.86-0.86c-0.48,0-0.86,0.39-0.86,0.86v0.89h-1.6l-1.06,0.54
						v-0.89c0-0.48-0.26-0.73-0.57-0.57c-0.32,0.16-0.57,0.68-0.57,1.15v0.89l-1.09,0.55v-0.89c0-0.48-0.26-0.73-0.57-0.57
						c-0.32,0.16-0.57,0.68-0.57,1.15v0.89l-1.09,0.55v-0.89c0-0.48-0.26-0.73-0.57-0.57c-0.32,0.16-0.57,0.68-0.57,1.15v0.89
						l-1.09,0.55v-0.89c0-0.48-0.26-0.73-0.57-0.57c-0.32,0.16-0.57,0.68-0.57,1.15v0.89l-1.06,0.54v1.02l9.96-5.05h12.71l2.32,1.42
						v23.99l3.64,1.9V50.03c0-1.19,0.76-1.75,1.71-1.26c0.94,0.49,1.71,1.86,1.71,3.05v19.96l2.9,1.51V43.98L72.95,38.8z
						 M67.98,41.68v-0.6l0.98,0.6H67.98z"/>
					<polygon class="st2" points="59.43,70.15 53.95,82.44 56.25,82.44 61.15,70.15 					"/>
					<polygon class="st1" points="79.8,82.44 72.95,70.15 61.15,70.15 56.25,82.44 53.95,82.44 59.43,70.15 57.92,70.15 
						47.97,75.34 33.5,91.75 33.5,93.8 51.07,84.48 79.8,84.48 97.37,93.8 97.37,91.75 					"/>
					<path class="st1" d="M70.63,42.7H57.92l-9.96,5.05v25.54l2.9-1.51V51.82c0-1.19,0.76-2.55,1.71-3.05
						c0.94-0.49,1.71,0.07,1.71,1.26V70l3.64-1.9h5.36V48.24c0-1.19,0.96-2.15,2.15-2.15c1.19,0,2.15,0.96,2.15,2.15v19.87h5.36
						V44.12L70.63,42.7z"/>
					<g>
						<path class="st1" d="M61.53,108.06c-0.12-0.22-0.22-0.45-0.3-0.69C61.31,107.61,61.41,107.84,61.53,108.06z"/>
						<path class="st1" d="M67.02,101.79c-0.22-0.08-0.45-0.16-0.69-0.2C66.57,101.63,66.79,101.7,67.02,101.79z"/>
					</g>
				</g>
			</g>
			<g>
				<path class="st0" d="M66.73,1.35c0-0.71-0.58-1.29-1.29-1.29c-0.71,0-1.29,0.58-1.29,1.29c0,0.41,0.2,0.78,0.5,1.02v17.07h1.57
					V2.37C66.53,2.13,66.73,1.77,66.73,1.35z"/>
				<path class="st3" d="M64.65,3.88c-1.59,0.74-5.45,2.78-9.96,7.01c-3.97,3.72-7.36,7.68-7.54,10.82c0.3-3.71,10.25-5,14.88-5
					c0.23-8.76,1.69-11.69,2.62-12.67V3.88z"/>
			</g>
			<g>
				<g>
					<g>
						<path class="st1" d="M18.25,48.77c-2.28,0-4.32,0.37-5.68,0.95v17.09c1.36-0.58,3.4-0.95,5.68-0.95
							c2.28,0,4.32,0.37,5.68,0.95V49.72C22.57,49.14,20.53,48.77,18.25,48.77z"/>
						<polygon class="st2" points="10.99,51.29 10.99,67.92 22.67,67.92 22.67,68.83 26.76,68.83 26.76,67.92 38.44,67.92 
							38.44,51.29 40.01,51.29 40.01,69.49 27.61,69.49 27.61,70.4 21.82,70.4 21.82,69.49 9.42,69.49 9.42,51.29 						"/>
					</g>
				</g>
			</g>
			<path class="st1" d="M58.54,16.89c-4.49,0.43-10.13,1.66-11.21,4.12c-0.03,0.07-0.05,0.14-0.07,0.21
				c-0.01,0.03-0.02,0.05-0.03,0.08c-0.04,0.13-0.06,0.27-0.08,0.41c-0.29,2.87,0.87,3.66,2.46,4.96c0.17-0.74,0.77-2.76,4.65-2.68
				c4.23,0.09,4.44-2.24,4.44-2.24C57.34,19.63,57.67,17.82,58.54,16.89z"/>
			<g>
				<polygon class="st1" points="68.96,41.68 67.98,41.09 67.98,41.68 				"/>
				<path class="st1" d="M49.03,45.3c0-0.48,0.26-0.99,0.57-1.15c0.32-0.16,0.57,0.1,0.57,0.57v0.89l1.09-0.55v-0.89
					c0-0.48,0.26-0.99,0.57-1.15c0.32-0.16,0.57,0.1,0.57,0.57v0.89l1.09-0.55v-0.89c0-0.48,0.26-0.99,0.57-1.15
					c0.32-0.16,0.57,0.1,0.57,0.57v0.89l1.09-0.55v-0.89c0-0.48,0.26-0.99,0.57-1.15c0.32-0.16,0.57,0.1,0.57,0.57v0.89l1.06-0.54
					h1.6v-0.89c0-0.48,0.39-0.86,0.86-0.86c0.48,0,0.86,0.39,0.86,0.86v0.89h1.64v-0.89c0-0.48,0.39-0.86,0.86-0.86
					c0.48,0,0.86,0.39,0.86,0.86v0.89h1.64v-0.89c0-0.24,0.1-0.45,0.25-0.61l-2.27-1.39h-6.32l-9.96,5.18v2.75l1.06-0.54V45.3z"/>
			</g>
			<polygon class="st2" points="72.95,34.93 57.92,34.93 62.57,37.78 72.95,37.78 72.95,37.78 82.9,42.96 82.9,40.12 			"/>
			<polygon class="st1" points="47.97,40.12 47.97,42.96 57.92,37.78 62.57,37.78 57.92,34.93 			"/>
			<g>
				<path class="st0" d="M44.67,127.56c-1,0.29-1.81,1.34-1.81,2.35v18.08l3.64-0.8v-18.32C46.5,127.85,45.68,127.27,44.67,127.56z"
					/>
				<path class="st0" d="M44.93,104.44c-1.3,0.49-2.34,2.55-2.34,4.6c0,2.05,1.04,3.36,2.34,2.9c1.31-0.46,2.38-2.53,2.38-4.62
					C47.31,105.24,46.24,103.95,44.93,104.44z"/>
				<path class="st0" d="M86.2,127.56c-1.01-0.29-1.83,0.29-1.83,1.32v18.32l3.64,0.8v-18.08C88,128.9,87.2,127.85,86.2,127.56z"/>
				<path class="st0" d="M68.58,102.79c-0.8-0.8-1.92-1.3-3.14-1.3c-2.46,0-4.45,1.99-4.45,4.45c0,0.96,0.3,1.84,0.82,2.57
					c0.02,0.02,0.03,0.05,0.05,0.07c0.02,0.03,0.04,0.05,0.06,0.08c0.08,0.1,0.16,0.19,0.24,0.28c0.03,0.03,0.06,0.06,0.09,0.1
					c0.02,0.02,0.03,0.03,0.04,0.05c-0.01-0.01-0.02-0.03-0.03-0.04c0.81,0.83,1.93,1.34,3.18,1.34c2.46,0,4.45-1.99,4.45-4.45
					C69.88,104.71,69.38,103.6,68.58,102.79L68.58,102.79z"/>
				<path class="st0" d="M85.94,104.44c-1.31-0.5-2.38,0.8-2.38,2.89c0,2.09,1.07,4.16,2.38,4.62c1.3,0.45,2.34-0.85,2.34-2.9
					C88.28,106.99,87.24,104.93,85.94,104.44z"/>
			</g>
			<path class="st0" d="M69.07,149.13V136.3c0-2.01-1.63-3.63-3.63-3.63c-2.01,0-3.63,1.63-3.63,3.63v11.02v13.36
				c2.29,0.63,3.63,0.9,3.63,0.9s1.34-0.27,3.63-0.9V149.13z"/>
			<g>
				<path class="st1" d="M94.97,149.73V96.17l-2.58-1.37v56.4C93.24,150.73,94.1,150.24,94.97,149.73z"/>
				<path class="st2" d="M85.2,154.81c0.03-0.02,0.07-0.03,0.1-0.05c0.53-0.24,1.07-0.49,1.61-0.75c0.04-0.02,0.09-0.04,0.13-0.06
					c1.74-0.83,3.53-1.75,5.35-2.75V94.8L78.7,87.55v69.97c0.01,0,0.01,0,0.02-0.01C80.75,156.74,82.92,155.85,85.2,154.81z
					 M88,147.99l-3.64-0.8v-18.32c0-1.02,0.82-1.61,1.83-1.32c1,0.29,1.81,1.34,1.81,2.35V147.99z M85.94,104.44
					c1.3,0.49,2.34,2.55,2.34,4.6c0,2.05-1.04,3.36-2.34,2.9c-1.31-0.46-2.38-2.53-2.38-4.62
					C83.56,105.24,84.63,103.95,85.94,104.44z"/>
				<path class="st2" d="M38.48,151.2c0,0,0.01,0,0.01,0.01c0.34,0.19,0.67,0.37,1.01,0.55V97.73l9.09-4.82v-3.47l-0.73,0.38
					l-9.39,4.98v3.47V151.2z"/>
				<path class="st1" d="M39.51,97.73v54.03c3.01,1.61,5.94,2.99,8.67,4.16c0,0,0,0,0.01,0c1.36,0.58,2.67,1.1,3.92,1.58
					c0.02,0.01,0.04,0.02,0.06,0.02c1.24,0.47,2.43,0.9,3.54,1.28c0.01,0,0.01,0,0.02,0.01V90.62v-3.07h-3.57l-3.57,1.89v3.47
					L39.51,97.73z M46.5,147.19l-3.64,0.8v-18.08c0-1.01,0.81-2.06,1.81-2.35c1.01-0.29,1.83,0.29,1.83,1.32V147.19z M44.93,111.95
					c-1.3,0.45-2.34-0.85-2.34-2.9c0-2.05,1.04-4.11,2.34-4.6c1.31-0.5,2.38,0.8,2.38,2.89C47.31,109.42,46.24,111.49,44.93,111.95z
					"/>
				<path class="st1" d="M38.47,151.2c0,0,0.01,0.01,0.01,0.01V98.27V94.8l-2.58,1.37v53.56c0,0,0,0,0,0
					C36.77,150.24,37.62,150.73,38.47,151.2z"/>
				<path class="st1" d="M61.8,90.62v9.54c2.64-1.66,6.16-1.35,8.46,0.95l-1.68,1.68c0.8,0.8,1.3,1.92,1.3,3.14
					c0,2.46-1.99,4.45-4.45,4.45c-1.25,0-2.37-0.52-3.18-1.34c0.01,0.01,0.02,0.03,0.03,0.04l-1.05,1.05l-0.64,0.64
					c0.37,0.37,0.77,0.68,1.2,0.95v17.86c-0.65,0.35-1.25,0.8-1.77,1.32c-0.52,0.52-0.97,1.12-1.32,1.77h1.97
					c0.16-0.21,0.33-0.41,0.52-0.6c1.08-1.08,2.58-1.75,4.23-1.75c1.37,0,2.62,0.46,3.63,1.24v4.75v24.39
					c0.28-0.08,0.57-0.16,0.88-0.25c0.04-0.01,0.09-0.02,0.13-0.04c0.28-0.08,0.56-0.16,0.86-0.25c0.05-0.01,0.09-0.03,0.14-0.04
					c0.32-0.1,0.66-0.2,1-0.3c0.02-0.01,0.03-0.01,0.05-0.01c1.9-0.59,4.12-1.34,6.57-2.27c0,0,0.01,0,0.01,0V87.55h-3.57v3.07H61.8
					z"/>
				<path class="st2" d="M55.73,90.62v68.19c0.01,0,0.02,0.01,0.03,0.01c1.18,0.4,2.28,0.76,3.29,1.07c0.01,0,0.02,0.01,0.03,0.01
					c0.23,0.07,0.46,0.14,0.68,0.2c0.05,0.01,0.1,0.03,0.15,0.04c0.2,0.06,0.4,0.12,0.6,0.18c0.04,0.01,0.08,0.02,0.12,0.03
					c0.42,0.12,0.81,0.23,1.18,0.33V136.3c0-2.01,1.63-3.63,3.63-3.63c2.01,0,3.63,1.63,3.63,3.63v-4.75
					c-1.01-0.77-2.26-1.24-3.63-1.24c-1.65,0-3.15,0.67-4.23,1.75c-0.19,0.19-0.36,0.39-0.52,0.6h-1.97
					c0.35-0.65,0.8-1.25,1.32-1.77c0.52-0.52,1.12-0.97,1.77-1.32v-17.86c-0.42-0.27-0.83-0.58-1.2-0.95l0.64-0.64l1.05-1.05
					c-0.02-0.02-0.03-0.03-0.04-0.05c-0.03-0.03-0.06-0.06-0.09-0.1c-0.08-0.09-0.16-0.19-0.24-0.28c-0.02-0.03-0.04-0.05-0.06-0.08
					c-0.02-0.02-0.03-0.05-0.05-0.07c-0.51-0.73-0.82-1.61-0.82-2.57c0-2.46,1.99-4.45,4.45-4.45c1.23,0,2.34,0.5,3.14,1.3
					l1.68-1.68c-2.3-2.3-5.82-2.61-8.46-0.95v-9.54h13.34v-3.07H55.73L55.73,90.62L55.73,90.62z"/>
			</g>
			<polygon class="st2" points="74.1,32.89 84.95,38.54 84.95,35.47 74.1,29.82 			"/>
			<path class="st0" d="M57.82,19.44c0.08,0.7,0.35,1.48,0.89,2.3c0,0-0.21,2.32-4.44,2.24c-3.89-0.08-4.49,1.95-4.65,2.68
				c-1.59-1.31-2.75-2.09-2.46-4.96c0.01-0.14,0.04-0.27,0.08-0.41c0.01-0.03,0.02-0.05,0.03-0.08c0.02-0.07,0.05-0.14,0.07-0.21
				c0.26-0.59,0.79-1.11,1.5-1.57H0c0,0,0,39.74,0,70.73c0,31.09,18.56,49.31,35.9,59.56V96.17l16.26-8.62H78.7l16.26,8.62v53.56
				c17.35-10.25,35.9-28.48,35.9-59.56c0-30.99,0-70.73,0-70.73H57.82z M106.94,49.72c1.36-0.58,3.4-0.95,5.68-0.95
				c2.28,0,4.32,0.37,5.68,0.95v17.09c-1.36-0.58-3.4-0.95-5.68-0.95c-2.28,0-4.32,0.37-5.68,0.95V49.72z M94.01,49.72
				c0.94-0.4,2.22-0.7,3.68-0.85v-1.23h4v1.23c1.46,0.15,2.74,0.44,3.68,0.85v17.09c-1.36-0.58-3.4-0.95-5.68-0.95
				c-2.28,0-4.32,0.37-5.68,0.95V49.72z M45.92,35.47l10.85-5.65h7.87V19.44h1.57v10.38h7.87l10.85,5.65v3.07L74.1,32.89H56.77
				l-10.85,5.65V35.47z M78.3,48.77c-0.94-0.49-1.71,0.07-1.71,1.26V70l-3.64-1.9h-5.36V48.24c0-1.19-0.96-2.15-2.15-2.15
				c-1.19,0-2.15,0.96-2.15,2.15v19.87h-5.36L54.28,70V50.03c0-1.19-0.76-1.75-1.71-1.26c-0.94,0.49-1.71,1.86-1.71,3.05v19.96
				l-2.9,1.51V47.75v-1.02v-2.75l9.96-5.18h6.32h8.71l9.96,5.18v29.31L80,71.78V51.82C80,50.63,79.24,49.26,78.3,48.77z
				 M72.95,37.78L72.95,37.78l-10.38,0h-4.65l-9.96,5.18v-2.84l9.96-5.18h15.02l9.95,5.18v2.84L72.95,37.78z M25.5,49.72
				c0.94-0.4,2.22-0.7,3.68-0.85v-1.23h4v1.23c1.46,0.15,2.74,0.44,3.68,0.85v17.09c-1.36-0.58-3.4-0.95-5.68-0.95
				c-2.28,0-4.32,0.37-5.68,0.95V49.72z M12.57,49.72c1.36-0.58,3.4-0.95,5.68-0.95c2.28,0,4.32,0.37,5.68,0.95v17.09
				c-1.36-0.58-3.4-0.95-5.68-0.95c-2.28,0-4.32,0.37-5.68,0.95V49.72z M27.61,70.4h-5.78v-0.91H9.42v-18.2h1.57v16.62h11.68v0.91
				h4.08v-0.91h11.68V51.29h1.57v18.2H27.61V70.4z M97.37,93.8L79.8,84.48H51.07L33.5,93.8v-2.04l14.47-16.42l9.96-5.18h15.02l0,0
				l9.95,5.18l14.47,16.42h0V93.8z M121.45,69.49h-12.41v0.91h-5.78v-0.91H90.86v-18.2h1.57v16.62h11.68v0.91h4.08v-0.91h11.68
				V51.29h1.57V69.49z"/>
			<path class="st1" d="M33.18,48.87v12.69l-2-1.73l-2,1.73V48.87c-1.46,0.15-2.74,0.44-3.68,0.85v17.09
				c1.36-0.58,3.4-0.95,5.68-0.95c2.28,0,4.32,0.37,5.68,0.95V49.72C35.92,49.31,34.64,49.02,33.18,48.87z"/>
			<polygon class="st3" points="33.18,61.56 31.18,59.83 29.18,61.56 29.18,47.64 33.18,47.64 			"/>
			<g>
				<g>
					<g>
						<path class="st1" d="M112.62,48.77c2.28,0,4.32,0.37,5.68,0.95v17.09c-1.36-0.58-3.4-0.95-5.68-0.95
							c-2.28,0-4.32,0.37-5.68,0.95V49.72C108.3,49.14,110.34,48.77,112.62,48.77z"/>
						<polygon class="st2" points="119.88,51.29 119.88,67.92 108.2,67.92 108.2,68.83 104.11,68.83 104.11,67.92 92.43,67.92 
							92.43,51.29 90.86,51.29 90.86,69.49 103.26,69.49 103.26,70.4 109.05,70.4 109.05,69.49 121.45,69.49 121.45,51.29 						"/>
					</g>
				</g>
			</g>
			<path class="st1" d="M97.69,48.87v12.69l2-1.73l2,1.73V48.87c1.46,0.15,2.74,0.44,3.68,0.85v17.09c-1.36-0.58-3.4-0.95-5.68-0.95
				c-2.28,0-4.32,0.37-5.68,0.95V49.72C94.95,49.31,96.23,49.02,97.69,48.87z"/>
			<polygon class="st3" points="97.69,47.64 101.69,47.64 101.69,61.56 99.69,59.83 97.69,61.56 			"/>
		</g>
	</g>
</g>
</svg>
